<svg xmlns="http://www.w3.org/2000/svg" xmlns:xlink="http://www.w3.org/1999/xlink" width="605.026" height="546.527" viewBox="0 0 605.026 546.527"><defs><clipPath id="a"><path d="M604.868,392.127s-6.467-1.982-9.419,5.166l14.6,16.3s8.014,12.046,6.877,14.481-5.295,8.795.355,4.317,7.534-5.97,6.236-9.542-3.34-8.084-3.34-8.084l8.4,8.671s-7.427-17.111-15.512-13.77" transform="translate(-595.449 -391.875)" fill="#ba8977"/></clipPath><clipPath id="b"><path d="M604.411,399.849s-4.152-5.338-10.678-1.186l2.576,21.729s-.367,14.464-2.7,15.8-9.388,4.154-2.191,3.737,9.6-.555,10.588-4.223,1.913-8.536,1.913-8.536l1.893,11.926s3.757-18.271-4.779-20.184" transform="translate(-588.27 -397.082)" fill="#ba8977"/></clipPath><clipPath id="c"><path d="M613.016,230.111S627.7,242.248,626.368,278.3,611.68,393.132,605,409.155c0,0-12.017,1.335-13.352-1.335,0,0-1.336-129.52,1.335-137.531,0,0-25.37-17.359-24.035-33.382S613.016,230.111,613.016,230.111Z" transform="translate(-568.901 -227.467)" fill="#518b96"/></clipPath><clipPath id="d"><path d="M605,159.463s-7.711-10.536-3.559-20.62l-14.237,5.339s2.373,13.05-7.574,15.281c-4.7,1.053,2.671,9.346,2.671,9.346h17.358Z" transform="translate(-578.068 -138.843)" fill="#ba8977"/></clipPath><clipPath id="e"><path d="M605,159.463s-13.352,9.346-25.37,0a12.127,12.127,0,0,0-7.849,2.515c-4.942,3.53-5.339,16.726-5.339,26.694,0,18.693,2.506,48.235,2.506,48.235s14.7,19.389,44.357-6.712c0,0-6.97-13.317-5.634-17.322s9.346-18.694,9.346-18.694-3.46-24.381,5.887-24.381C622.908,169.8,609.01,163.468,605,159.463Z" transform="translate(-566.446 -159.438)" fill="#c05c6d"/></clipPath><clipPath id="f"><path d="M368.245,138.8,397.883,122.2s12.719,2.691,15.319,2.034,5.473.775,7.049-1.567,1.141-8.737-1.567-9.4-9.888,1.838-10.509-.322-.069-6.186,1.543-8.088.19-8.418-2.007-8.237c0,0-5.17,12.368-7.294,13.428a10.691,10.691,0,0,0-3.663,3.84l-39.434,14.35S362.571,139.707,368.245,138.8Z" transform="translate(-357.32 -96.621)" fill="#eec4af"/></clipPath><clipPath id="g"><path d="M406.153,128.936l-3.427,17.355s17.615,6.652,21.156.049l-2.065-18.187Z" transform="translate(-402.726 -128.153)" fill="#eec4af"/></clipPath><clipPath id="h"><path d="M409.46,146s-5.445,14.84-2.81,18.813,3.053,14.111,3.053,14.111,9.31-23.779,5.806-33.043l13.1,2.895s1.824.191,8.792,1.655c13.488,2.832,9.315,35.19,9.315,35.19s-9.512,18.652-8.642,23.5-.588,45.906-2.938,46.689c0,0-25.692,2.9-32.3-.2s-14.94-.136-16.262-.58-.362-6.993-.8-9.639-7.009-69.853-8.768-71.62c0,0-34.926-12.065-34.893-26.19.033-14.318,16.044-18.072,16.044-18.072l5.035,8.013s-3.567,5.467-1.7,5.471c1.685,0,10.028,4.234,13.892,2.138,4.639-2.516,23.373-.17,23.373-.17Z" transform="translate(-342.115 -129.508)" fill="#62899e"/></clipPath><clipPath id="i"><path d="M359.42,352.9a186.415,186.415,0,0,1,2.215,41.36c-1.477,21.418-2.215,35.451-2.215,35.451s3.692,3.692,1.477,10.339L359.42,433.4s-.739,8.863-4.432,9.6-6.647-1.478-2.954-4.432,4.431-8.862,4.431-8.862S338,349.206,343.91,341.82,359.42,352.9,359.42,352.9Z" transform="translate(-342.744 -340.076)" fill="#e0af9b"/></clipPath><clipPath id="j"><path d="M339.427,350.231a186.406,186.406,0,0,1,.686,41.413c-2.267,21.349-3.524,35.345-3.524,35.345s3.554,3.827,1.094,10.387l-1.23-6.7s-1.066,8.83-4.784,9.431-6.587-1.721-2.788-4.537,4.756-8.693,4.756-8.693-15.477-81.13-9.3-88.292S339.427,350.231,339.427,350.231Z" transform="translate(-322.881 -336.961)" fill="#e0af9b"/></clipPath><clipPath id="k"><path d="M329.391,182.832s-24.348,18.69-17.891,29.617.739,62.95.739,62.95,17.881,13.41,31.788,3.477,17.881-8.444,17.881-8.444-17.13-38.612-8.189-61.957l4.224-22.491s-12.171-6.317-15.648-5.323S329.391,182.832,329.391,182.832Z" transform="translate(-310.41 -180.555)" fill="#518b96"/></clipPath><clipPath id="l"><path d="M321.6,209.348l35.154-6.976,9.314,50.055-35.145,8.5Z" transform="translate(-321.597 -202.372)" fill="#606ce6"/></clipPath><clipPath id="m"><path d="M332.134,165.216s1.908,12.4-3.816,20.987c0,0,.477,3.815,8.585,3.338s8.586-7.154,8.586-7.154.236-22.295,3.586-27.32C351.32,151.7,332.134,165.216,332.134,165.216Z" transform="translate(-328.318 -154.528)" fill="#e0af9b"/></clipPath><clipPath id="n"><ellipse cx="16.694" cy="22.894" rx="16.694" ry="22.894" fill="#e0af9b"/></clipPath><clipPath id="o"><path d="M228.3,171.071l8.258,69.015s-18.1,48.4-8.7,86c0,0-1.566-27.411,1.036-36.447,0,0,2.359,36.572,7.668,43.06,0,0,35.982-2.949,50.729,1.77s15.926-3.54,15.926-3.54L284.04,176.675l-4.424-12.092S245.4,158.684,228.3,171.071Z" transform="translate(-225.146 -163.179)" fill="#c05c6d"/></clipPath><clipPath id="p"><path d="M245.161,164.8s7.711-10.535,3.559-20.62l14.237,5.339s-4.561,11.314,3.271,13.663c.453.136.533.84.4,1.82a9.177,9.177,0,0,1-10.721,7.6c-3.657-.625-7.241-1.668-8.153-3.264Z" transform="translate(-245.161 -144.177)" fill="#ba8977"/></clipPath><clipPath id="q"><path d="M501.557,136.07s-20.276,20.291-18.276,27.626c2.55,9.351-21.676-8.925-22.526-19.126s33.152-34.852,42.5-28.9,25.5,22.1,12.751,32.3C516.008,147.971,508.357,135.22,501.557,136.07Z" transform="translate(-460.739 -114.754)" fill="#3c4c69"/></clipPath><clipPath id="r"><path d="M485.831,188.348s-7.65,2.55-17,11.05-16.15,40.8-11.05,60.353,26.351,49.3,26.351,49.3,15.3,3.4,28.052,9.351,31.451-5.951,36.552-14.451,5.95-33.152,1.7-52.7-26.352-57.8-51.853-61.2C498.582,190.048,494.332,194.3,485.831,188.348Z" transform="translate(-456.035 -188.348)" fill="#674862"/></clipPath></defs><g transform="translate(-914.458 -232.413)"><path d="M827.344,162.969s66.292-11.759,112.781-19.348c63.076-10.3,128.56-21.8,185.083,6.991,97.96,49.891,75.308,73.122,106.3,109.561s167.72,349.129,22.338,410.209c-39.37,16.541-88.583,3.967-166.578,4.208-69.121.214-114.283,4.8-173.035-14.992C793.9,619.066,730.382,538.888,717.07,431.461c-7.254-58.536,2.193-113.564,13.821-150.847C762.91,177.957,827.344,162.969,827.344,162.969Z" transform="translate(199.926 100)" fill="#3a506b"/><g transform="translate(951.925 271)"><g transform="translate(430.435 9.641)"><path d="M601.994,151.17s9.568.166,9.568-6.139c0,0,10.509-3.5,7.006-10.509,0,0,8.406-7.706,2.8-14.011,0,0,6.3-9.807,0-14.011,0,0-2.8-14.011-10.508-11.208,0,0-1.4-9.108-12.61-4.2,0,0-11.209-8.407-14.712-2.1,0,0-14.011-.7-14.011,6.306,0,0-11.209,4.2-7.005,13.31,0,0-5.6,9.808-.7,14.712,0,0-4.9,9.107,2.1,13.31,0,0-1.4,9.808,5.6,10.508,0,0,8.407,9.107,14.712,4.2C584.241,151.336,598.731,156.609,601.994,151.17Z" transform="translate(-556.935 -86.641)" fill="#453645"/><g transform="translate(38.514 305.234)"><path d="M604.868,392.127s-6.467-1.982-9.419,5.166l14.6,16.3s8.014,12.046,6.877,14.481-5.295,8.795.355,4.317,7.534-5.97,6.236-9.542-3.34-8.084-3.34-8.084l8.4,8.671s-7.427-17.111-15.512-13.77" transform="translate(-595.449 -391.875)" fill="#ba8977"/><g clip-path="url(#a)"><path d="M614.3,407.454l-1.143,2.079s13.384,17.516,3.014,17.906-3.119,11.824-3.119,11.824l14.84-6.055,9.746-11.564-13.618-18.322Z" transform="translate(-595.449 -391.875)" fill="#5d4d69"/></g></g><g transform="translate(31.335 310.441)"><path d="M604.411,399.849s-4.152-5.338-10.678-1.186l2.576,21.729s-.367,14.464-2.7,15.8-9.388,4.154-2.191,3.737,9.6-.555,10.588-4.223,1.913-8.536,1.913-8.536l1.893,11.926s3.757-18.271-4.779-20.184" transform="translate(-588.27 -397.082)" fill="#ba8977"/><g clip-path="url(#b)"><path d="M603.323,417.815l-2.131,1.045s.884,22.026-7.826,16.385-9.348,7.883-9.348,7.883l15.623,3.575,14.622-3.862-.612-22.82Z" transform="translate(-588.27 -397.082)" fill="#5d4d69"/></g></g><g transform="translate(11.966 140.826)"><path d="M613.016,230.111S627.7,242.248,626.368,278.3,611.68,393.132,605,409.155c0,0-12.017,1.335-13.352-1.335,0,0-1.336-129.52,1.335-137.531,0,0-25.37-17.359-24.035-33.382S613.016,230.111,613.016,230.111Z" transform="translate(-568.901 -227.467)" fill="#518b96"/><g clip-path="url(#c)"><path d="M589.769,341.949l22.353,54.935L599.665,412.9l-11.271-18.982,1.375-51.969" transform="translate(-568.901 -227.467)" fill="#8097ee" opacity="0.5"/></g></g><path d="M594.322,266.283c0,1.335-8.011,52.075-9.347,57.416s25.37,74.774,25.37,76.109c0,0-4.006,9.347-10.682,8.012s-42.728-78.78-42.728-89.462,8.406-74.534,12.215-82.666S594.322,266.283,594.322,266.283Z" transform="translate(-556.935 -86.641)" fill="#518b96"/><g transform="translate(21.133 52.202)"><path d="M605,159.463s-7.711-10.536-3.559-20.62l-14.237,5.339s2.373,13.05-7.574,15.281c-4.7,1.053,2.671,9.346,2.671,9.346h17.358Z" transform="translate(-578.068 -138.843)" fill="#ba8977"/><g clip-path="url(#d)"><path d="M585.207,151.662s12.679,3.2,13.865-9.853-15.423,9.491-15.423,9.491" transform="translate(-578.068 -138.843)" fill="#ba8977" opacity="0.35"/></g></g><path d="M576.478,109.776c0,1.545-6.179,35.527,7.723,40.161s20.08-15.447,20.08-15.447l-9.267-21.624Z" transform="translate(-556.935 -86.641)" fill="#ba8977"/><g transform="translate(9.511 72.797)"><path d="M605,159.463s-13.352,9.346-25.37,0a12.127,12.127,0,0,0-7.849,2.515c-4.942,3.53-5.339,16.726-5.339,26.694,0,18.693,2.506,48.235,2.506,48.235s14.7,19.389,44.357-6.712c0,0-6.97-13.317-5.634-17.322s9.346-18.694,9.346-18.694-3.46-24.381,5.887-24.381C622.908,169.8,609.01,163.468,605,159.463Z" transform="translate(-566.446 -159.438)" fill="#c05c6d"/><g clip-path="url(#e)"><path d="M559.526,243.443" transform="translate(-566.446 -159.438)" fill="none" stroke="#c4944b" stroke-miterlimit="10" stroke-width="0.593"/><path d="M601.84,214.97l1.385-.2" transform="translate(-566.446 -159.438)" fill="none" stroke="#c4944b" stroke-miterlimit="10" stroke-width="0.148"/><path d="M616.511,195.357a15.82,15.82,0,0,1-3.235-4.892" transform="translate(-566.446 -159.438)" fill="none" stroke="#c4944b" stroke-miterlimit="10" stroke-width="0.148"/><path d="M613.9,196.185l-1.186-.791" transform="translate(-566.446 -159.438)" fill="none" stroke="#c4944b" stroke-miterlimit="10" stroke-width="0.148"/></g></g><path d="M572.378,113.929s3.56,4.745,8.9,0a6.478,6.478,0,0,0,8.9,2.372s1.78,5.933,6.525,4.153c0,0,1.78,14.83,7.119,9.491s-7.119-25.507-7.119-25.507H583.056l-10.678,1.186S570.006,110.963,572.378,113.929Z" transform="translate(-556.935 -86.641)" fill="#453645"/><g transform="translate(16.665 36.34)"><g transform="translate(11.326 1.424)"><path d="M589.6,133.946a4.086,4.086,0,0,1-3.15-1.173,5.024,5.024,0,0,1-1.506-3.271h0a4.569,4.569,0,0,1,3.944-5.086,4.082,4.082,0,0,1,3.149,1.173,5.021,5.021,0,0,1,1.507,3.271,4.607,4.607,0,0,1-3.666,5.055C589.783,133.928,589.69,133.939,589.6,133.946Zm-4.423-4.462a4.787,4.787,0,0,0,1.435,3.121,3.85,3.85,0,0,0,2.97,1.108,4.336,4.336,0,0,0,3.73-4.836,4.79,4.79,0,0,0-1.436-3.12,3.854,3.854,0,0,0-2.97-1.108c-.088.006-.176.016-.262.028A4.374,4.374,0,0,0,585.174,129.484Z" transform="translate(-584.926 -124.405)" fill="#e9ba63"/></g><path d="M578.271,132.521a4.569,4.569,0,0,1-4.656-4.444h0a4.335,4.335,0,1,1,8.6-.642,5.017,5.017,0,0,1-1,3.459,4.1,4.1,0,0,1-2.659,1.6C578.46,132.5,578.366,132.514,578.271,132.521Zm-4.423-4.461h0a4.337,4.337,0,0,0,4.406,4.229,3.852,3.852,0,0,0,2.773-1.538,4.789,4.789,0,0,0,.956-3.3,4.337,4.337,0,0,0-4.406-4.229c-.088.007-.175.016-.261.029A4.374,4.374,0,0,0,573.848,128.06Z" transform="translate(-573.6 -122.981)" fill="#e9ba63"/><g transform="translate(19.626 6.334)"><path d="M605.336,130.254,605.33,130l-12.1-.69.005.249Z" transform="translate(-593.227 -129.315)" fill="#e9ba63"/></g><g transform="translate(8.451 4.394)"><path d="M585.024,128.32l.183-.145a2.337,2.337,0,0,0-3.156-.343l.124.2A2.078,2.078,0,0,1,585.024,128.32Z" transform="translate(-582.051 -127.375)" fill="#e9ba63"/></g><g transform="translate(0.185 3.602)"><path d="M575.338,127.141l.053-.227-1.553-.33-.053.227Z" transform="translate(-573.785 -126.584)" fill="#e9ba63"/></g></g><g transform="translate(33.225 34.386)"><path d="M594.419,126.544a5.164,5.164,0,0,0-4.036-4.965c-.336-.085-.274-.629.067-.543a5.7,5.7,0,0,1,4.512,5.575c-.006.351-.549.283-.543-.067Z" transform="translate(-590.16 -121.027)" fill="#453645"/></g><g transform="translate(19.018 33.237)"><path d="M580.191,120.315a3.552,3.552,0,0,0-3.871,2.18c-.1.221-.449.081-.349-.141a3.931,3.931,0,0,1,4.266-2.413c.237.044.193.418-.046.374Z" transform="translate(-575.953 -119.878)" fill="#453645"/></g><path d="M577.011,127.485a.8.8,0,0,0,.519.978c.362.057.718-.289.794-.772a.8.8,0,0,0-.519-.978C577.442,126.656,577.087,127,577.011,127.485Z" transform="translate(-556.935 -86.641)" fill="#513e3a"/><path d="M587.1,128.667a.8.8,0,0,0,.522.983c.364.057.721-.291.8-.776a.8.8,0,0,0-.521-.983C587.529,127.834,587.172,128.181,587.1,128.667Z" transform="translate(-556.935 -86.641)" fill="#513e3a"/><path d="M608.118,133.834c-.9,2.145-2.847,3.372-4.348,2.742s-1.988-2.879-1.088-5.023,2.846-3.372,4.347-2.742S609.017,131.69,608.118,133.834Z" transform="translate(-556.935 -86.641)" fill="#ba8977"/><path d="M622.908,169.8s12.206,9.917-6.866,48.825c0,0-29.753,8.392-47.3-6.1l6.1-.763s25.176,4.578,33.568,0C608.413,211.757,610.7,168.272,622.908,169.8Z" transform="translate(-556.935 -86.641)" fill="#ba8977"/><path d="M571.794,162.169s-15.258,9.155-12.97,48.062c.468,7.951,44.249,4.578,44.249,4.578s-16.784-9.155-35.094-9.155C567.979,205.654,575.733,166.144,571.794,162.169Z" transform="translate(-556.935 -86.641)" fill="#ba8977"/></g><g transform="translate(264.615)"><path d="M426.516,416.366,436.7,424.2l2.35-2.35L432,409.317Z" transform="translate(-342.115 -71)" fill="#eec4af"/><path d="M436.7,424.2l-2.349,6.265s-5.482,0-7.049,3.133h9.4l5.483-11.748h-3.133Z" transform="translate(-342.115 -71)" fill="#27263e"/><path d="M413.2,422.631c-.783.783,1.566,10.182,1.566,10.182H417.9l2.35-10.965Z" transform="translate(-342.115 -71)" fill="#eec4af"/><path d="M419.467,433.6s-4.7-7.049-15.663,0Z" transform="translate(-342.115 -71)" fill="#27263e"/><path d="M441.154,152.45s23.061,24.622,31.649,60.092c0,0-13.127,21.8-36.275,32.668l.02-8.619s17.283-19.784,24.2-27.525c0,0-23.2-28.5-18.866-41.414S441.154,152.45,441.154,152.45Z" transform="translate(-342.115 -71)" fill="#eec4af"/><path d="M387.357,251.113c-1.976.988-10.281,105.9-8.3,107.873s47.426,62.247,47.426,62.247l9.881-9.88-38.534-61.26,9.88-63.235,1.976,137.34h11.857L435.914,250.33S397.237,246.173,387.357,251.113Z" transform="translate(-342.115 -71)" fill="#5d4d69"/><g transform="translate(15.205 25.621)"><path d="M368.245,138.8,397.883,122.2s12.719,2.691,15.319,2.034,5.473.775,7.049-1.567,1.141-8.737-1.567-9.4-9.888,1.838-10.509-.322-.069-6.186,1.543-8.088.19-8.418-2.007-8.237c0,0-5.17,12.368-7.294,13.428a10.691,10.691,0,0,0-3.663,3.84l-39.434,14.35S362.571,139.707,368.245,138.8Z" transform="translate(-357.32 -96.621)" fill="#eec4af"/><g clip-path="url(#f)"><path d="M407.853,119.391c-.01,4.535-4.261,8.2-9.494,8.19s-9.467-3.7-9.456-8.234,4.261-8.2,9.494-8.19S407.864,114.855,407.853,119.391Z" transform="translate(-357.32 -96.621)" fill="#b18457" opacity="0.19"/></g></g><path d="M408.466,141.9l-8.407,14.085,2.609,15.433,5.7,13.677L420.3,171.9l4.17-18.339-6.751-9.435Z" transform="translate(-342.115 -71)" fill="#eec4af"/><g transform="translate(60.611 57.153)"><path d="M406.153,128.936l-3.427,17.355s17.615,6.652,21.156.049l-2.065-18.187Z" transform="translate(-402.726 -128.153)" fill="#eec4af"/><g clip-path="url(#g)"><path d="M428.329,129.381c-.011,4.5-9.034,10.8-17.554,10.777s-13.31-6.345-13.3-10.848,6.925-8.138,15.445-8.119S428.339,124.877,428.329,129.381Z" transform="translate(-402.726 -128.153)" fill="#b18457" opacity="0.19"/></g></g><g transform="translate(0 58.508)"><path d="M409.46,146s-5.445,14.84-2.81,18.813,3.053,14.111,3.053,14.111,9.31-23.779,5.806-33.043l13.1,2.895s1.824.191,8.792,1.655c13.488,2.832,9.315,35.19,9.315,35.19s-9.512,18.652-8.642,23.5-.588,45.906-2.938,46.689c0,0-25.692,2.9-32.3-.2s-14.94-.136-16.262-.58-.362-6.993-.8-9.639-7.009-69.853-8.768-71.62c0,0-34.926-12.065-34.893-26.19.033-14.318,16.044-18.072,16.044-18.072l5.035,8.013s-3.567,5.467-1.7,5.471c1.685,0,10.028,4.234,13.892,2.138,4.639-2.516,23.373-.17,23.373-.17Z" transform="translate(-342.115 -129.508)" fill="#25436c"/><g clip-path="url(#h)"><path d="M428.6,148.775l-10.485,12.1-3.511-6.62-3.511-6.619-7.519,11.442s-10.552-11.484-7.894-17.208,35.473-5.648,32.92,6.908" transform="translate(-342.115 -129.508)" fill="#508386" opacity="0.26"/><path d="M409.713,174.369s-.445,2.056-.021,9.256,2.6,19.546-.051,22.185-1.964,52.455-.645,54.221-1.762-.445-1.762-.445-.691-48.495,1.086-54.661.077-33.057,1.4-33.054-.006,2.5-.006,2.5" transform="translate(-342.115 -129.508)" fill="#508386" opacity="0.26"/></g></g><path d="M401.418,140.117l8.362,5.308-6.639,11.885-7.465-12.358Z" transform="translate(-342.115 -71)" fill="#325381"/><path d="M425.108,143.18l-9.589,2.482,2.666,13.35,10.9-9.467Z" transform="translate(-342.115 -71)" fill="#325381"/><path d="M362.126,126.294s8.458,11.064,6.268,13.419a2.691,2.691,0,0,1-1.3,2.594,50.974,50.974,0,0,1-6.053,2.127s-12.32-16.592-10.086-16.827,5.509-3.642,6.294-2.211C357.5,125.86,357.444,124.487,362.126,126.294Z" transform="translate(-342.115 -71)" fill="#325381"/><g transform="translate(39.325)"><path d="M397.328,119.049c1.57,2.437,1.491,5.283-.176,6.357s-4.291-.031-5.861-2.467-1.491-5.283.176-6.357S395.758,116.613,397.328,119.049Z" transform="translate(-381.44 -71)" fill="#eec4af"/><path d="M391.289,92.252s-6.31.93-3.851-5.728S407.19,75.673,407.194,71c0,0,6.3,7.248,4.316,9.467,0,0,8.645.24,10.05-3.732,0,0,4.437,3.976,2.1,6.311,0,0,10.394,5.5,2.552,25.238l-33.482,7.6s-11.963-11.96-11.258-16.866,5.148-10.277,9.354-10.508" transform="translate(-381.44 -71)" fill="#5b3a47"/><path d="M389.871,100.2s3.209,26.985,12.543,35.41,26.872-7.014,25.609-13.127-7.013-29.179-7.013-29.179l-.559-1.68a6.734,6.734,0,0,0-8.08-4.4c-6.483,1.679-16.1,4.332-18.344,5.826C390.566,95.359,388.95,97.433,389.871,100.2Z" transform="translate(-381.44 -71)" fill="#eec4af"/><path d="M390,94.237s11.912,6.552,21.264-.452c0,0-1.753.583-2.1-1.637,0,0,9.7-2.446,10.046,3.279,0,0,2.448,7.362,3.966,8.415s1.815,4.661,1.815,4.661l1.459-8.865-4.664-12.855-10.864-2.228-18,5.6L387.2,95.17s.808,12.969,2.208,14.839,4.9,8.883,4.9,8.883-3.142-17.644-.687-19.628c0,0,1.289-5.49.239-6.309S390,94.237,390,94.237Z" transform="translate(-381.44 -71)" fill="#5b3a47"/><path d="M431.212,111.077c-.083,2.994-1.812,5.375-3.86,5.318s-3.642-2.531-3.559-5.525,1.812-5.375,3.861-5.317S431.3,108.083,431.212,111.077Z" transform="translate(-381.44 -71)" fill="#eec4af"/><path d="M406.219,128.474s12.652-3.674,14.1-7.356C420.315,121.118,423.826,136.492,406.219,128.474Z" transform="translate(-381.44 -71)" fill="#fff"/><path d="M397.816,113.053a3.543,3.543,0,0,1,.871-1.883,3.375,3.375,0,0,1,1.9-1.1,3.59,3.59,0,0,1,2.169.286,2.394,2.394,0,0,1,.462.257c.147.1.291.194.43.294a6.593,6.593,0,0,1,.709.751,8.915,8.915,0,0,1-.962-.269c-.158-.033-.313-.067-.463-.105a2.86,2.86,0,0,0-.446-.1c-.149-.019-.3-.041-.438-.068a4.126,4.126,0,0,0-.428-.021c-.07,0-.14-.008-.21-.013l-.2.024a1.952,1.952,0,0,0-.4.051,3.976,3.976,0,0,0-1.535.661A10.659,10.659,0,0,0,397.816,113.053Z" transform="translate(-381.44 -71)" fill="#56352b"/><path d="M412.073,109.091a3.536,3.536,0,0,1,.871-1.883,3.372,3.372,0,0,1,1.9-1.1,3.588,3.588,0,0,1,2.168.286,2.353,2.353,0,0,1,.463.258c.147.1.291.193.43.294a6.489,6.489,0,0,1,.708.75,8.918,8.918,0,0,1-.962-.269c-.158-.033-.312-.067-.462-.105a2.756,2.756,0,0,0-.447-.1c-.149-.02-.295-.041-.438-.068a3.867,3.867,0,0,0-.427-.022c-.071,0-.14-.008-.21-.013l-.205.024a1.943,1.943,0,0,0-.4.051,3.97,3.97,0,0,0-1.535.661A10.661,10.661,0,0,0,412.073,109.091Z" transform="translate(-381.44 -71)" fill="#56352b"/><path d="M396.149,108.685c.388-.422.779-.838,1.143-1.274s.73-.863,1.07-1.3.569-.951.916-1.34l.5-.6a3.472,3.472,0,0,0,.447-.689l.11-.013a1.421,1.421,0,0,1,.171.981,2.9,2.9,0,0,1-.828,1.653c-.217.211-.444.4-.658.605a14.8,14.8,0,0,1-1.35,1.112c-.474.335-.946.666-1.449.954Z" transform="translate(-381.44 -71)" fill="#5b3a47"/><path d="M417.571,101.563c-.564-.107-1.125-.205-1.678-.337s-1.1-.253-1.637-.4-1.026-.421-1.537-.524l-.756-.183a3.4,3.4,0,0,1-.77-.284l-.1.055a1.418,1.418,0,0,0,.45.888,2.888,2.888,0,0,0,1.653.828c.3.04.6.059.889.091a14.644,14.644,0,0,0,1.747.082c.581-.016,1.157-.033,1.732-.1Z" transform="translate(-381.44 -71)" fill="#5b3a47"/></g><path d="M444.42,186.619a111.037,111.037,0,0,0,7.727,12.946c4.3,6.044,5.15,9.493,6.01,10.357s-1.6,6.892-1.6,6.892l8.058,6.56s6.452-5.665,9.044-8.245,2.611-11.2,1.759-15.51-12.525-16.388-13.733-21.7c-4.217-18.556-19.183-26.949-21.56-26.342S433.253,170.217,444.42,186.619Z" transform="translate(-342.115 -71)" fill="#25436c"/></g><path d="M468.4,215.808s-10.927-6.812-9.8-9.564a2.49,2.49,0,0,1,.281-2.67,47.216,47.216,0,0,1,4.543-3.815s16.073,10.334,14.217,11.266-3.578,4.948-4.724,3.967C472.546,214.673,473.042,215.843,468.4,215.808Z" transform="translate(-98.5 -42)" fill="#62899e"/><g transform="translate(200.381 76.776)"><g transform="translate(43.863 221.301)"><path d="M359.42,352.9a186.415,186.415,0,0,1,2.215,41.36c-1.477,21.418-2.215,35.451-2.215,35.451s3.692,3.692,1.477,10.339L359.42,433.4s-.739,8.863-4.432,9.6-6.647-1.478-2.954-4.432,4.431-8.862,4.431-8.862S338,349.206,343.91,341.82,359.42,352.9,359.42,352.9Z" transform="translate(-342.744 -340.076)" fill="#e0af9b"/><g clip-path="url(#i)"><path d="M353.511,434.879s0,4.431,2.216,2.954,2.216-8.124,5.17-8.863,5.17,16.987,5.17,16.987l-14.033,4.431-8.124-10.34Z" transform="translate(-342.744 -340.076)" fill="#27263e"/></g></g><g transform="translate(24 218.185)"><path d="M339.427,350.231a186.406,186.406,0,0,1,.686,41.413c-2.267,21.349-3.524,35.345-3.524,35.345s3.554,3.827,1.094,10.387l-1.23-6.7s-1.066,8.83-4.784,9.431-6.587-1.721-2.788-4.537,4.756-8.693,4.756-8.693-15.477-81.13-9.3-88.292S339.427,350.231,339.427,350.231Z" transform="translate(-322.881 -336.961)" fill="#e0af9b"/><g clip-path="url(#j)"><path d="M328.4,434.879s2.954,2.954,4.432.738,3.692-11.078,5.908-9.6,5.908,14.032,5.908,14.032l-11.816,7.386-11.079-7.386Z" transform="translate(-322.881 -336.961)" fill="#27263e"/></g></g><path d="M329.534,182.984s-5.025-1.117-9.492,4.467-1.117,32.941-1.117,32.941S334,190.8,329.534,182.984Z" transform="translate(-298.881 -118.776)" fill="#e0af9b"/><path d="M356.465,263.533s13.287,9.324,7.378,45.763-4.423,43.6-4.423,43.6l-36.928-1.477s-19.45-73.608-6.647-81.979S356.465,263.533,356.465,263.533Z" transform="translate(-298.881 -118.776)" fill="#433a4f"/><g transform="translate(11.53 61.779)"><path d="M329.391,182.832s-24.348,18.69-17.891,29.617.739,62.95.739,62.95,17.881,13.41,31.788,3.477,17.881-8.444,17.881-8.444-17.13-38.612-8.189-61.957l4.224-22.491s-12.171-6.317-15.648-5.323S329.391,182.832,329.391,182.832Z" transform="translate(-310.41 -180.555)" fill="#518b96"/><g clip-path="url(#k)"><path d="M323.532,210.342l-3.49.558,10.05,51.367,34.058-8.375-12.018-20.3Z" transform="translate(-310.41 -180.555)" fill="#2f3278" opacity="0.3"/></g></g><g transform="translate(22.716 83.596)"><path d="M321.6,209.348l35.154-6.976,9.314,50.055-35.145,8.5Z" transform="translate(-321.597 -202.372)" fill="#606ce6"/><g clip-path="url(#l)"><path d="M327.583,242.465s1.951,4.169,14.234,1.377,21.217-1.116,22.892-3.908-4.467-6.142-4.467-6.142l-17.308,6.142-14.517,1.675-.834.856" transform="translate(-321.597 -202.372)" fill="#606ce6" opacity="0.43"/></g></g><path d="M347.911,198s-5.053-10.149,3.525-13.277,22.655,17.331,33.571,42.135c0,0-6.717,11.749-42.632,14.754,0,0-14.516,6.142-16.191-1.675-1-4.672-2.515-9.325-.559-8.933a41.9,41.9,0,0,0,6.7.558s-5.059-3.907-4.167-8.333a.527.527,0,0,1,.962-.163c1.1,1.781,3.645,5.388,6.574,6.249,3.929,1.155,7.159,7.252,7.159,7.252s24.6-5.953,28.258-10.277A137.133,137.133,0,0,1,347.911,198Z" transform="translate(-298.881 -118.776)" fill="#e0af9b"/><path d="M334.367,122.789s16.895-9.252,22.366,4.426c2.145,5.362-2.465,9.7,6.97,11.8,9.651,2.144.77,17.275,6.97,18.229s5.19,24.692-1.011,21.354-16.693,5.246-20.032.477-21.94,6.677-24.8,1.431c0,0-3.339-6.678-10.493-1.908-8.287,5.524-18.125-2.862-14.786-11.924,3.567-9.682,10.016-9.063,7.154-16.694s-2.862-11.447,5.247-14.786S312.427,109.911,334.367,122.789Z" transform="translate(-298.881 -118.776)" fill="#dc805e"/><g transform="translate(29.437 35.753)"><path d="M332.134,165.216s1.908,12.4-3.816,20.987c0,0,.477,3.815,8.585,3.338s8.586-7.154,8.586-7.154.236-22.295,3.586-27.32C351.32,151.7,332.134,165.216,332.134,165.216Z" transform="translate(-328.318 -154.528)" fill="#e0af9b"/><g clip-path="url(#m)"><ellipse cx="10.05" cy="7.258" rx="10.05" ry="7.258" transform="translate(-4.368 7.797)" fill="#e0af9b" opacity="0.35"/></g></g><g transform="translate(18.793 10.691)"><ellipse cx="16.694" cy="22.894" rx="16.694" ry="22.894" fill="#e0af9b"/><g clip-path="url(#n)"><path d="M322.275,139.434s2.234-3.35,5.025-3.908c0,0,.175,6.22,5.392,5.622h0s-3.717-1.156-4.275-4.506c0,0,2.233,4.467,6.7,3.909,0,0,2.792,6.141,6.7,5.583s6.763,6.187,9.244,2.815-17.619-15.1-17.619-15.1l-7.817-2.792-3.908,3.908Z" transform="translate(-317.673 -129.466)" fill="#e0af9b" opacity="0.35"/></g></g><path d="M349.7,150.794c1.057-2.211,3.17-3.4,4.717-2.662s1.945,3.133.887,5.344-3.17,3.4-4.718,2.662S348.641,153.005,349.7,150.794Z" transform="translate(-298.881 -118.776)" fill="#e0af9b"/><path d="M320.042,152.834a3.223,3.223,0,0,1,.986-1.53,2.9,2.9,0,0,1,1.808-.752,2.564,2.564,0,0,1,1.858.709,3.789,3.789,0,0,1,.592.726,4.786,4.786,0,0,1,.339.847,7.922,7.922,0,0,1-.738-.471l-.355-.2a1.815,1.815,0,0,0-.341-.182,2.645,2.645,0,0,0-1.318-.313,3.544,3.544,0,0,0-1.358.363A16.671,16.671,0,0,0,320.042,152.834Z" transform="translate(-298.881 -118.776)" fill="#56352b"/><path d="M333.442,153.392a3.232,3.232,0,0,1,.986-1.53,2.9,2.9,0,0,1,1.808-.752,2.564,2.564,0,0,1,1.858.709,3.82,3.82,0,0,1,.592.726,4.784,4.784,0,0,1,.339.847,7.527,7.527,0,0,1-.738-.471l-.355-.2a1.868,1.868,0,0,0-.341-.181,2.635,2.635,0,0,0-1.318-.313,3.509,3.509,0,0,0-1.358.363C334.443,152.8,333.967,153.085,333.442,153.392Z" transform="translate(-298.881 -118.776)" fill="#56352b"/><path d="M319.685,148.423c.966-2.506,3.495-3.207,5.835-2.108.242.114.455-.247.211-.362-2.6-1.222-5.375-.43-6.449,2.359-.1.251.307.36.4.111Z" transform="translate(-298.881 -118.776)" fill="#dc805e"/><path d="M333.9,147.051c2.24-1.482,4.707-.585,5.975,1.666.132.234.514.063.382-.171-1.411-2.506-4.128-3.469-6.621-1.82-.225.148.041.472.264.325Z" transform="translate(-298.881 -118.776)" fill="#dc805e"/><path d="M352.239,141.99l-6.446-9.668-7.826-5.524-8.747,1.381-8.747,4.143s-5.525,8.287-4.144,14.272a14.169,14.169,0,0,0,6.906-7.827c1.267-3.8,3.407-4.333,4.618-4.294a5.606,5.606,0,0,0-.21,1.611,4.9,4.9,0,0,0,1.242,3.128,6.806,6.806,0,0,0,2.576,1.874,5.429,5.429,0,0,0,3.066.3,5.208,5.208,0,0,1-2.879-.69,6.153,6.153,0,0,1-2.07-2.006,3.789,3.789,0,0,1-.633-2.553,4.142,4.142,0,0,1,.112-.538c.643,1.744,2.454,5.13,6.608,4.091,0,0,3.223,6.445,7.366,5.525s4.143,5.064,7.366,4.6S352.239,141.99,352.239,141.99Z" transform="translate(-298.881 -118.776)" fill="#dc805e"/><path d="M327.662,166.043s5,2.643,11.363-2.74C339.025,163.3,337.263,174.906,327.662,166.043Z" transform="translate(-298.881 -118.776)" fill="#fff"/></g><g transform="translate(121.47 158.146)"><path d="M264.662,109.922s-6.266-5.482-14.1-4.7-19.579,18.014-14.88,35.244,3.571,30.544,2.569,33.677,43.506-1.455,43.506-1.455-8.482-29.873-4.566-43.97S273.277,109.139,264.662,109.922Z" transform="translate(-223.97 -105.146)" fill="#453645"/><path d="M228.635,326.082l14.1-3.132-11.748-39.16-4.7,10.621S224.719,322.95,228.635,326.082Z" transform="translate(-223.97 -105.146)" fill="#af5062"/><path d="M247.432,436.512s-8.615,7.048-7.049,7.832,10.181,2.349,10.965,0,.979-7.832.979-7.832Z" transform="translate(-223.97 -105.146)" fill="#c08a76"/><path d="M261.333,436.512s-2.937,1.566-1.37,3.132,22.712,0,22.712,0-.783-1.566-11.748-3.132S261.333,436.512,261.333,436.512Z" transform="translate(-223.97 -105.146)" fill="#c08a76"/><path d="M229.773,272.529s-4.129,33.032,4.129,61.936,2.359,85.53,11.8,102.047h8.258s7.669-61.936,6.489-81.992,11.207-38.931,4.129-56.627S252.778,244.8,229.773,272.529Z" transform="translate(-223.97 -105.146)" fill="#4d274a"/><path d="M294.068,274.3c1.289,1.213,8.848,44.24-4.719,79.042s-11.207,74.914-18.875,83.172H260.446s-2.36-33.033,0-51.909-10.618-45.419-5.309-65.475S284.04,264.86,294.068,274.3Z" transform="translate(-223.97 -105.146)" fill="#4d274a"/><g transform="translate(1.176 58.033)"><path d="M228.3,171.071l8.258,69.015s-18.1,48.4-8.7,86c0,0-1.566-27.411,1.036-36.447,0,0,2.359,36.572,7.668,43.06,0,0,35.982-2.949,50.729,1.77s15.926-3.54,15.926-3.54L284.04,176.675l-4.424-12.092S245.4,158.684,228.3,171.071Z" transform="translate(-225.146 -163.179)" fill="#c05c6d"/><g clip-path="url(#o)"><path d="M232.427,230.648s11.208,20.645,23.005,30.673l10.028-7.078s-20.509-40.517-21.757-56.83-11.276,16.719-11.276,16.719Z" transform="translate(-225.146 -163.179)" fill="#c05c6d" opacity="0.25"/><path d="M284.155,177.6s1.95,56.588-3.359,76.054L292,258.962l5.9-12.388L284.155,177.6" transform="translate(-225.146 -163.179)" fill="#c05c6d" opacity="0.25"/></g></g><path d="M252.483,262.5l41.881-8.258,4.719,27.724-42.47,6.488-4.129-24.774" transform="translate(-223.97 -105.146)" fill="#518b96"/><path d="M258.381,256.012s0,10.028,3.539,10.028a5.185,5.185,0,0,0,5.309-4.719c0-1.77-5.309-7.668-5.309-7.668Z" transform="translate(-223.97 -105.146)" fill="#c08a76"/><path d="M284.7,253.425s-6.967,7.213-4.421,9.672a5.185,5.185,0,0,0,7.1.294c1.229-1.273,1.509-9.2,1.509-9.2Z" transform="translate(-223.97 -105.146)" fill="#c08a76"/><path d="M228,170.776s-19.465,37.162,27.134,89.07l10.028-5.9s-18.876-33.033-20.646-46.6S245.109,170.776,228,170.776Z" transform="translate(-223.97 -105.146)" fill="#c05c6d"/><path d="M279.322,164.288S311.764,176.675,292.3,256.9l-10.618-2.949S291.709,195.551,279.322,164.288Z" transform="translate(-223.97 -105.146)" fill="#c05c6d"/><g transform="translate(21.191 39.031)"><path d="M245.161,164.8s7.711-10.535,3.559-20.62l14.237,5.339s-4.561,11.314,3.271,13.663c.453.136.533.84.4,1.82a9.177,9.177,0,0,1-10.721,7.6c-3.657-.625-7.241-1.668-8.153-3.264Z" transform="translate(-245.161 -144.177)" fill="#ba8977"/><g clip-path="url(#p)"><path d="M264.958,157s-12.679,3.2-13.865-9.853,15.423,9.492,15.423,9.492" transform="translate(-245.161 -144.177)" fill="#ba8977" opacity="0.35"/></g></g><path d="M273.687,115.111c0,1.544,6.178,35.526-7.723,40.16s-20.081-15.446-20.081-15.446l9.268-21.625Z" transform="translate(-223.97 -105.146)" fill="#ba8977"/><path d="M242.047,139.169c.9,2.144,2.847,3.372,4.348,2.742s1.988-2.879,1.088-5.024-2.846-3.372-4.347-2.742S241.147,137.024,242.047,139.169Z" transform="translate(-223.97 -105.146)" fill="#ba8977"/><path d="M273.237,133.106a3.225,3.225,0,0,0-.986-1.53,2.9,2.9,0,0,0-1.807-.752,2.561,2.561,0,0,0-1.858.709,3.783,3.783,0,0,0-.592.726,4.715,4.715,0,0,0-.34.847,7.614,7.614,0,0,0,.739-.47l.354-.2a1.866,1.866,0,0,1,.341-.181,2.635,2.635,0,0,1,1.318-.313,3.522,3.522,0,0,1,1.358.363C272.236,132.518,272.712,132.8,273.237,133.106Z" transform="translate(-223.97 -105.146)" fill="#56352b"/><path d="M262.187,132.882a3.23,3.23,0,0,0-.986-1.531,2.908,2.908,0,0,0-1.808-.752,2.568,2.568,0,0,0-1.858.709,3.82,3.82,0,0,0-.592.726,4.8,4.8,0,0,0-.339.848,7.919,7.919,0,0,0,.738-.471l.355-.2a1.868,1.868,0,0,1,.341-.181,2.635,2.635,0,0,1,1.318-.313,3.526,3.526,0,0,1,1.358.363A16.675,16.675,0,0,1,262.187,132.882Z" transform="translate(-223.97 -105.146)" fill="#56352b"/><path d="M269.534,147.1s-5,2.643-11.364-2.741C258.17,144.358,259.932,155.962,269.534,147.1Z" transform="translate(-223.97 -105.146)" fill="#fff"/><path d="M263.852,116.75c-.037-.22-9.867,18.479-16.668,19.532,0,0,4.164-18.528,8.08-20.877s17.23-2.35,18.8-.783,1.566,14.1,1.566,14.1S265.392,125.927,263.852,116.75Z" transform="translate(-223.97 -105.146)" fill="#453645"/><path d="M265.445,127.153s-.783,1.566,0,2.349S265.445,127.153,265.445,127.153Z" transform="translate(-223.97 -105.146)" fill="#518b96"/></g><path d="M581.587,141.467s7.049,1.566,8.615-2.35c0,0-.783,8.615-8.615,2.35" transform="translate(-126.5 -76)" fill="#fff"/><g transform="translate(0 42.729)"><path d="M153.888,131.323l-8.927-7.212s-7.693-34.95-6.91-36.516,43.858-3.916,43.858-2.349-1.566,47.774-1.566,47.774Z" transform="translate(-98.5 -84.729)" fill="#312734"/><path d="M183.335,113.762s-2.55,10.2,0,15.3,0,19.551-11.051,19.551a28.455,28.455,0,0,0,.227,8.685s-12.127,6.616-19.778-1.884c0,0,2.452-23.278-4.3-32.89s-9.3-28.314,11.1-30.864S183.335,113.762,183.335,113.762Z" transform="translate(-98.5 -84.729)" fill="#865b4d"/><path d="M182.784,127.629c.154-.131,3.891,9.89,3.041,12.44s-9.98,10.964-12.531,10.964-15.886-1.994-16.736-5.394-4.744-14.554-4.744-14.554S175.007,134.271,182.784,127.629Z" transform="translate(-98.5 -84.729)" fill="#312734"/><path d="M152.93,126.415c1.062,3.11.122,6.246-2.1,7s-4.883-1.148-5.945-4.257-.122-6.246,2.1-7.005S151.868,123.305,152.93,126.415Z" transform="translate(-98.5 -84.729)" fill="#865b4d"/><path d="M158.151,114.444s7.966-.571,9.038-2.8S160.1,111.532,158.151,114.444Z" transform="translate(-98.5 -84.729)" fill="#312734"/><path d="M183.293,113.485s-7.194-.515-8.162-2.531S181.535,110.856,183.293,113.485Z" transform="translate(-98.5 -84.729)" fill="#312734"/><path d="M164.679,136.153s5.483,7.048,12.531,2.349C177.21,138.5,167.029,148.684,164.679,136.153Z" transform="translate(-98.5 -84.729)" fill="#fff"/><path d="M141.184,160.431s12.079-5.322,11.913-18.325c0,0,8.224,14.361,13.819,11.252a33.828,33.828,0,0,0,12.155,6.786c6.754,1.854-8.126,12.818-8.126,12.818l-21.929-.783Z" transform="translate(-98.5 -84.729)" fill="#865b4d"/><path d="M131,435.33l-1.566,10.181h4.7l4.7-13.314Z" transform="translate(-98.5 -84.729)" fill="#865b4d"/><path d="M134.135,445.512s-12.531-6.266-21.929,1.566Z" transform="translate(-98.5 -84.729)" fill="#27263e"/><path d="M187.392,428.281l-2.35,16.447H179.56l.783-13.314Z" transform="translate(-98.5 -84.729)" fill="#865b4d"/><path d="M177.993,444.728s12.532-6.265,21.93,1.567Z" transform="translate(-98.5 -84.729)" fill="#27263e"/><path d="M144.506,283.577s-15.25,132.479-17.849,153.271c0,0,7.8,2.6,12.129,0s31.189-127.257,32.921-125.525,5.2,123.792,5.2,123.792l14.728-2.6s10.4-144.584,6.065-150.649S144.506,283.577,144.506,283.577Z" transform="translate(-98.5 -84.729)" fill="#4f6978"/><path d="M127.956,203.462s19.926,34.654,16.461,81.437c0,0,38.986,19.06,52.848-2.6,0,0,5.2-107.428-18.194-122.156C179.071,160.144,169.541,183.535,127.956,203.462Z" transform="translate(-98.5 -84.729)" fill="#521111"/><path d="M111.782,261.181c6.3,5.064,15.562,8.716,29.17,8.124,0,0,4.331,12.995,7.8,7.8s2.6-12.995,1.732-12.995-7.8.866-7.8.866-11.4-8.555-19.123-16.977C119.081,251.423,114.871,256.684,111.782,261.181Z" transform="translate(-98.5 -84.729)" fill="#865b4d"/><path d="M137.486,202.6s41.585-16.46,41.585-42.451c0,0-10.4,19.06-38.119,0,0,0-38.987,18.193-42.452,76.239,0,0,1.13,15.029,13.282,24.8,3.089-4.5,7.3-9.758,11.779-13.185-4.317-4.707-7.489-9.373-6.867-12.479C116.694,235.517,134.887,208.66,137.486,202.6Z" transform="translate(-98.5 -84.729)" fill="#521111"/><path d="M213.295,238.077c.686-64.568-34.657-78.366-34.657-78.366l.433,6.93C176.239,185.253,195,222,197.484,226.768,202.077,227.668,208.471,230.375,213.295,238.077Z" transform="translate(-98.5 -84.729)" fill="#521111"/><path d="M164.776,211.692l-1.733,20.793h9.53l4.332-19.926Z" transform="translate(-98.5 -84.729)" fill="#4d454e"/><path d="M197.484,226.768c.176.337.273.519.273.519-3.407,4.331-24.317-2.6-24.317-2.6s-9.53-5.2-10.4-5.2.866,9.53,2.6,10.4,7.8.866,7.8.866c21.659,19.06,39.852,7.8,39.852,7.8,0-.159,0-.314,0-.472C208.471,230.375,202.077,227.668,197.484,226.768Z" transform="translate(-98.5 -84.729)" fill="#865b4d"/><path d="M180.3,119.394a3.223,3.223,0,0,0-.986-1.53,2.9,2.9,0,0,0-1.808-.752,2.561,2.561,0,0,0-1.858.709,3.789,3.789,0,0,0-.592.726,4.866,4.866,0,0,0-.34.847,7.805,7.805,0,0,0,.739-.471l.354-.2a1.76,1.76,0,0,1,.342-.181,2.632,2.632,0,0,1,1.318-.314,3.54,3.54,0,0,1,1.357.363A16.546,16.546,0,0,1,180.3,119.394Z" transform="translate(-98.5 -84.729)" fill="#312734"/><path d="M166.9,119.169a3.24,3.24,0,0,0-.986-1.53,2.9,2.9,0,0,0-1.808-.752,2.561,2.561,0,0,0-1.858.709,3.82,3.82,0,0,0-.592.726,4.865,4.865,0,0,0-.34.847,7.613,7.613,0,0,0,.739-.471l.354-.2a1.816,1.816,0,0,1,.342-.181,2.647,2.647,0,0,1,1.318-.314,3.52,3.52,0,0,1,1.357.364A16.406,16.406,0,0,1,166.9,119.169Z" transform="translate(-98.5 -84.729)" fill="#312734"/><path d="M152.148,126.754l-6.265-6.265s-4.7-19.58-3.916-23.5S168.6,87.6,168.6,87.6s13.507,16.314,12.531,18.013-4.7-6.265-10.964,0c-2,2-11.748-7.048-17.231,0-2.8,3.6,0,25.845,3.133,27.412s-3.133-.783-3.133-.783S154.5,129.1,152.148,126.754Z" transform="translate(-98.5 -84.729)" fill="#312734"/></g><g transform="translate(349.535 135.754)"><path d="M477.331,440.811l.85-4.25h3.4l-1.7,4.25h-2.55" transform="translate(-456.035 -114.754)" fill="#c07e65"/><path d="M482.325,441.85h-7.438S478.075,437.6,482.325,441.85Z" transform="translate(-456.035 -114.754)" fill="#27263e"/><path d="M524.933,439.961l.85-4.25h3.4l-1.7,4.25h-2.55" transform="translate(-456.035 -114.754)" fill="#c07e65"/><path d="M536.834,439.961h-11.9S532.584,435.711,536.834,439.961Z" transform="translate(-456.035 -114.754)" fill="#27263e"/><path d="M484.131,306.5c-.776.918-5.1,113.906-10.2,129.207,0,0,6.8,4.25,10.2,1.7,0,0,28.9-68,31.452-94.355,0,0,10.2,74.8,6.8,92.655,0,0,7.651,1.7,10.2-.85,0,0,15.848-85.855,14.3-128.357C546.883,306.5,493.482,295.453,484.131,306.5Z" transform="translate(-456.035 -114.754)" fill="#393b4a"/><path d="M516.008,147.971s-2.55,10.2,0,15.3,0,19.551-11.051,19.551c0,0-7.225,3.826-6.375,8.926,0,0-5.525,6.375-13.176-2.125,0,0,2.452-23.278-4.3-32.89s-9.3-28.314,11.1-30.864S516.008,147.971,516.008,147.971Z" transform="translate(-456.035 -114.754)" fill="#c07e65"/><g transform="translate(4.705)"><path d="M501.557,136.07s-20.276,20.291-18.276,27.626c2.55,9.351-21.676-8.925-22.526-19.126s33.152-34.852,42.5-28.9,25.5,22.1,12.751,32.3C516.008,147.971,508.357,135.22,501.557,136.07Z" transform="translate(-460.739 -114.754)" fill="#3c4c69"/><g clip-path="url(#q)"><g transform="translate(10.489 10.821)"><path d="M471.73,126.219l.142-.142a.294.294,0,0,0-.416-.415l-.141.141a.294.294,0,0,0,.415.416Z" transform="translate(-471.228 -125.575)" fill="#29364a"/></g><g transform="translate(40.422 -5.607)"><path d="M501.651,136.906c6.753-7.941,4.649-18.381,2.015-27.552a.294.294,0,0,0-.566.156c2.565,8.933,4.747,19.206-1.865,26.98-.243.287.17.7.416.416Z" transform="translate(-501.161 -109.148)" fill="#29364a"/></g><g transform="translate(44.273 15.381)"><path d="M505.146,130.694c7.389,4.946,13.677,11.51,14.864,20.684.048.369.636.374.588,0-1.215-9.384-7.568-16.113-15.156-21.192-.315-.211-.609.3-.3.508Z" transform="translate(-505.012 -130.136)" fill="#29364a"/></g><g transform="translate(44.471 11.988)"><path d="M505.578,127.5c5.1-.949,10.8,1.943,14.625,5.076.29.237.708-.176.415-.416-4.015-3.292-9.862-6.22-15.2-5.226-.371.069-.214.635.156.566Z" transform="translate(-505.21 -126.742)" fill="#29364a"/></g><g transform="translate(-8.679 4.457)"><path d="M505.694,119.42c-1.4,5.408-5.946,9.917-9.553,14.018A97.437,97.437,0,0,1,485.077,144.3a64.541,64.541,0,0,1-13.544,8.723c-5.5,2.582-12.989,5.56-19.108,4a.294.294,0,0,0-.156.567c5.541,1.416,11.933-.818,17.024-2.929a62.684,62.684,0,0,0,14.088-8.259A94.576,94.576,0,0,0,497,133.346c3.5-4.016,7.887-8.486,9.258-13.77a.294.294,0,0,0-.567-.156Z" transform="translate(-452.06 -119.211)" fill="#29364a"/></g><g transform="translate(-9.384 3.029)"><path d="M504.978,117.932c-2.06,4.087-7.4,6.6-11.269,8.718a86.155,86.155,0,0,1-13.768,6.032,66.592,66.592,0,0,1-13.378,3.229,24.987,24.987,0,0,1-8.8-.323c-4.588-1.1-6.148-4.424-5.729-8.993.034-.376-.554-.374-.588,0-.435,4.751.7,7.972,5.489,9.4,5.8,1.725,12.226.363,17.9-1.155a86.713,86.713,0,0,0,17.962-7.031c4.389-2.31,10.355-4.943,12.691-9.579.17-.336-.337-.634-.507-.3Z" transform="translate(-451.355 -117.783)" fill="#29364a"/></g></g></g><path d="M515.457,161.837c.154-.131,6.926,9.51,6.076,12.06s-9.35,16.151-11.9,16.151-19.551-6.8-20.4-10.2-4.744-14.554-4.744-14.554S507.68,168.479,515.457,161.837Z" transform="translate(-456.035 -114.754)" fill="#312734"/><path d="M485.6,160.623c1.062,3.11.122,6.246-2.1,7s-4.883-1.147-5.945-4.258-.122-6.246,2.1-7S484.541,157.513,485.6,160.623Z" transform="translate(-456.035 -114.754)" fill="#c07e65"/><g transform="translate(0 73.594)"><path d="M485.831,188.348s-7.65,2.55-17,11.05-16.15,40.8-11.05,60.353,26.351,49.3,26.351,49.3,15.3,3.4,28.052,9.351,31.451-5.951,36.552-14.451,5.95-33.152,1.7-52.7-26.352-57.8-51.853-61.2C498.582,190.048,494.332,194.3,485.831,188.348Z" transform="translate(-456.035 -188.348)" fill="#32334a"/><g clip-path="url(#r)"><g transform="translate(13.99 46.672)"><path d="M484.267,311.146c2.919-26.272-11.233-50.124-13.6-75.821-.037-.4-.675-.409-.637,0,2.37,25.693,16.521,49.56,13.6,75.821-.046.407.592.4.637,0Z" transform="translate(-470.024 -235.02)" fill="#3b2538"/></g><g transform="translate(23.753 2.603)"><path d="M479.922,191.564q9.183,6.984,17.908,14.531c.309.267.761-.182.45-.451q-8.787-7.6-18.036-14.63c-.327-.249-.645.3-.322.55Z" transform="translate(-479.787 -190.951)" fill="#3b2538"/></g><g transform="translate(41.499 -5.126)"><path d="M498.159,205.975c1.908-7.627,4.7-14.485,5.226-22.446.027-.41-.611-.408-.638,0-.529,7.992-3.294,14.648-5.2,22.276a.319.319,0,0,0,.614.17Z" transform="translate(-497.534 -183.222)" fill="#3b2538"/></g><g transform="translate(41.605 16.763)"><path d="M497.736,205.654a88.828,88.828,0,0,1,26.9,53.519c2.624,20.5,2.521,41.5.988,62.078-.03.409.608.407.638,0,1.6-21.55,1.819-43.788-1.422-65.207-3-19.808-12.342-36.906-26.658-50.841-.294-.286-.745.164-.45.451Z" transform="translate(-497.64 -205.111)" fill="#3b2538"/></g><g transform="translate(49.595 32.843)"><path d="M505.63,221.5v.284a.319.319,0,0,0,.638,0V221.5a.319.319,0,0,0-.638,0Z" transform="translate(-505.63 -221.191)" fill="#3b2538"/></g><g transform="translate(58.107 46.717)"><path d="M514.449,235.7a.319.319,0,0,0,0-.637.319.319,0,0,0,0,.637Z" transform="translate(-514.141 -235.065)" fill="#3b2538"/></g><g transform="translate(63.49 65.134)"><path d="M519.833,254.12a.319.319,0,0,0,0-.638.319.319,0,0,0,0,.638Z" transform="translate(-519.525 -253.482)" fill="#3b2538"/></g><g transform="translate(64.908 88.369)"><path d="M521.533,276.717h-.283a.319.319,0,0,0,0,.637h.283a.319.319,0,0,0,0-.637Z" transform="translate(-520.942 -276.717)" fill="#3b2538"/></g><path d="M523.8,298.287l-.283.283" transform="translate(-456.035 -188.348)" fill="none" stroke="#3b2538" stroke-miterlimit="10" stroke-width="0.196"/><path d="M522.383,314.438v-.284" transform="translate(-456.035 -188.348)" fill="none" stroke="#3b2538" stroke-miterlimit="10" stroke-width="0.196"/><g transform="translate(34.621 0.821)"><path d="M491.143,199.513a11.949,11.949,0,0,0,7.072-10.038c.033-.409-.605-.407-.638,0a11.332,11.332,0,0,1-6.755,9.488c-.375.167-.051.716.321.55Z" transform="translate(-490.655 -189.169)" fill="#3b2538"/></g><g transform="translate(24.619 -7.058)"><path d="M496.059,195.173c-1.1.769-4.328-.792-5.325-1.274a17.491,17.491,0,0,1-4.516-3.167,17.179,17.179,0,0,1-4.944-9.212c-.077-.4-.692-.232-.614.17a17.876,17.876,0,0,0,6.746,10.9c1.668,1.27,6.864,4.605,8.975,3.13.334-.233.016-.786-.322-.551Z" transform="translate(-480.653 -181.29)" fill="#3b2538"/></g></g></g><path d="M491.948,152.126s6.019-.431,6.829-2.118S493.419,149.927,491.948,152.126Z" transform="translate(-456.035 -114.754)" fill="#312734"/><path d="M515.038,151.245s-5.586-.4-6.337-1.966S513.672,149.2,515.038,151.245Z" transform="translate(-456.035 -114.754)" fill="#312734"/><path d="M497.352,170.361s5.483,7.048,12.531,2.349C509.883,172.71,499.7,182.892,497.352,170.361Z" transform="translate(-456.035 -114.754)" fill="#fff"/><path d="M493.164,156.373a3.532,3.532,0,0,1,1.328-1.594,3.367,3.367,0,0,1,2.123-.574,3.59,3.59,0,0,1,2.021.836,2.364,2.364,0,0,1,.38.368c.118.13.231.263.34.4a6.586,6.586,0,0,1,.491.907,8.6,8.6,0,0,1-.86-.508q-.217-.108-.42-.221a2.8,2.8,0,0,0-.406-.211c-.139-.057-.274-.116-.406-.179a3.925,3.925,0,0,0-.407-.131c-.068-.019-.133-.044-.2-.067l-.2-.03a1.983,1.983,0,0,0-.4-.055,4,4,0,0,0-1.654.242A10.733,10.733,0,0,0,493.164,156.373Z" transform="translate(-456.035 -114.754)" fill="#56352b"/><path d="M507.96,156.226a3.537,3.537,0,0,1,1.328-1.594,3.373,3.373,0,0,1,2.123-.574,3.6,3.6,0,0,1,2.021.837,2.365,2.365,0,0,1,.38.368q.177.2.34.4a6.6,6.6,0,0,1,.491.908,8.984,8.984,0,0,1-.86-.508c-.145-.073-.285-.146-.42-.222a3.013,3.013,0,0,0-.406-.211c-.139-.057-.274-.115-.406-.178a3.934,3.934,0,0,0-.407-.132c-.068-.019-.133-.043-.2-.066l-.205-.03a1.853,1.853,0,0,0-.4-.055,3.961,3.961,0,0,0-1.653.242A10.606,10.606,0,0,0,507.96,156.226Z" transform="translate(-456.035 -114.754)" fill="#56352b"/></g></g></g></svg>